<svg xmlns="http://www.w3.org/2000/svg" viewBox="13.840 11.000 292.468 200.000"><title>RVLT Flow — RVLT Flow</title><metadata>RVLT Flow custom brand patch. Typography follows the supplied design document: Archivo RVLT and Baloo 2 Flow. Lettering converted to paths; no external fonts required. Font source: https://github.com/google/fonts/tree/main/ofl/archivo. Copyright 2020 The Archivo Project Authors (https://github.com/Omnibus-Type/Archivo)

This Font Software is licensed under the SIL Open Font License, Version 1.1.
This license is copied below, and is also available with a FAQ at:
http://scripts.sil.org/OFL


-----------------------------------------------------------
SIL OPEN FONT LICENSE Version 1.1 - 26 February 2007
-----------------------------------------------------------

PREAMBLE
The goals of the Open Font License (OFL) are to stimulate worldwide
development of collaborative font projects, to support the font creation
efforts of academic and linguistic communities, and to provide a free and
open framework in which fonts may be shared and improved in partnership
with others.

The OFL allows the licensed fonts to be used, studied, modified and
redistributed freely as long as they are not sold by themselves. The
fonts, including any derivative works, can be bundled, embedded, 
redistributed and/or sold with any software provided that any reserved
names are not used by derivative works. The fonts and derivatives,
however, cannot be released under any other type of license. The
requirement for fonts to remain under this license does not apply
to any document created using the fonts or their derivatives.

DEFINITIONS
&quot;Font Software&quot; refers to the set of files released by the Copyright
Holder(s) under this license and clearly marked as such. This may
include source files, build scripts and documentation.

&quot;Reserved Font Name&quot; refers to any names specified as such after the
copyright statement(s).

&quot;Original Version&quot; refers to the collection of Font Software components as
distributed by the Copyright Holder(s).

&quot;Modified Version&quot; refers to any derivative made by adding to, deleting,
or substituting -- in part or in whole -- any of the components of the
Original Version, by changing formats or by porting the Font Software to a
new environment.

&quot;Author&quot; refers to any designer, engineer, programmer, technical
writer or other person who contributed to the Font Software.

PERMISSION &amp; CONDITIONS
Permission is hereby granted, free of charge, to any person obtaining
a copy of the Font Software, to use, study, copy, merge, embed, modify,
redistribute, and sell modified and unmodified copies of the Font
Software, subject to the following conditions:

1) Neither the Font Software nor any of its individual components,
in Original or Modified Versions, may be sold by itself.

2) Original or Modified Versions of the Font Software may be bundled,
redistributed and/or sold with any software, provided that each copy
contains the above copyright notice and this license. These can be
included either as stand-alone text files, human-readable headers or
in the appropriate machine-readable metadata fields within text or
binary files as long as those fields can be easily viewed by the user.

3) No Modified Version of the Font Software may use the Reserved Font
Name(s) unless explicit written permission is granted by the corresponding
Copyright Holder. This restriction only applies to the primary font name as
presented to the users.

4) The name(s) of the Copyright Holder(s) or the Author(s) of the Font
Software shall not be used to promote, endorse or advertise any
Modified Version, except to acknowledge the contribution(s) of the
Copyright Holder(s) and the Author(s) or with their explicit written
permission.

5) The Font Software, modified or unmodified, in part or in whole,
must be distributed entirely under this license, and must not be
distributed under any other license. The requirement for fonts to
remain under this license does not apply to any document created
using the Font Software.

TERMINATION
This license becomes null and void if any of the above conditions are
not met.

DISCLAIMER
THE FONT SOFTWARE IS PROVIDED &quot;AS IS&quot;, WITHOUT WARRANTY OF ANY KIND,
EXPRESS OR IMPLIED, INCLUDING BUT NOT LIMITED TO ANY WARRANTIES OF
MERCHANTABILITY, FITNESS FOR A PARTICULAR PURPOSE AND NONINFRINGEMENT
OF COPYRIGHT, PATENT, TRADEMARK, OR OTHER RIGHT. IN NO EVENT SHALL THE
COPYRIGHT HOLDER BE LIABLE FOR ANY CLAIM, DAMAGES OR OTHER LIABILITY,
INCLUDING ANY GENERAL, SPECIAL, INDIRECT, INCIDENTAL, OR CONSEQUENTIAL
DAMAGES, WHETHER IN AN ACTION OF CONTRACT, TORT OR OTHERWISE, ARISING
FROM, OUT OF THE USE OR INABILITY TO USE THE FONT SOFTWARE OR FROM
OTHER DEALINGS IN THE FONT SOFTWARE.
Font source: https://github.com/google/fonts/tree/main/ofl/baloo2. ﻿Copyright 2019 The Baloo 2 Project Authors (https://github.com/EkType/Baloo2)

This Font Software is licensed under the SIL Open Font License, Version 1.1.
This license is copied below, and is also available with a FAQ at:
http://scripts.sil.org/OFL


-----------------------------------------------------------
SIL OPEN FONT LICENSE Version 1.1 - 26 February 2007
-----------------------------------------------------------

PREAMBLE
The goals of the Open Font License (OFL) are to stimulate worldwide
development of collaborative font projects, to support the font creation
efforts of academic and linguistic communities, and to provide a free and
open framework in which fonts may be shared and improved in partnership
with others.

The OFL allows the licensed fonts to be used, studied, modified and
redistributed freely as long as they are not sold by themselves. The
fonts, including any derivative works, can be bundled, embedded, 
redistributed and/or sold with any software provided that any reserved
names are not used by derivative works. The fonts and derivatives,
however, cannot be released under any other type of license. The
requirement for fonts to remain under this license does not apply
to any document created using the fonts or their derivatives.

DEFINITIONS
&quot;Font Software&quot; refers to the set of files released by the Copyright
Holder(s) under this license and clearly marked as such. This may
include source files, build scripts and documentation.

&quot;Reserved Font Name&quot; refers to any names specified as such after the
copyright statement(s).

&quot;Original Version&quot; refers to the collection of Font Software components as
distributed by the Copyright Holder(s).

&quot;Modified Version&quot; refers to any derivative made by adding to, deleting,
or substituting -- in part or in whole -- any of the components of the
Original Version, by changing formats or by porting the Font Software to a
new environment.

&quot;Author&quot; refers to any designer, engineer, programmer, technical
writer or other person who contributed to the Font Software.

PERMISSION &amp; CONDITIONS
Permission is hereby granted, free of charge, to any person obtaining
a copy of the Font Software, to use, study, copy, merge, embed, modify,
redistribute, and sell modified and unmodified copies of the Font
Software, subject to the following conditions:

1) Neither the Font Software nor any of its individual components,
in Original or Modified Versions, may be sold by itself.

2) Original or Modified Versions of the Font Software may be bundled,
redistributed and/or sold with any software, provided that each copy
contains the above copyright notice and this license. These can be
included either as stand-alone text files, human-readable headers or
in the appropriate machine-readable metadata fields within text or
binary files as long as those fields can be easily viewed by the user.

3) No Modified Version of the Font Software may use the Reserved Font
Name(s) unless explicit written permission is granted by the corresponding
Copyright Holder. This restriction only applies to the primary font name as
presented to the users.

4) The name(s) of the Copyright Holder(s) or the Author(s) of the Font
Software shall not be used to promote, endorse or advertise any
Modified Version, except to acknowledge the contribution(s) of the
Copyright Holder(s) and the Author(s) or with their explicit written
permission.

5) The Font Software, modified or unmodified, in part or in whole,
must be distributed entirely under this license, and must not be
distributed under any other license. The requirement for fonts to
remain under this license does not apply to any document created
using the Font Software.

TERMINATION
This license becomes null and void if any of the above conditions are
not met.

DISCLAIMER
THE FONT SOFTWARE IS PROVIDED &quot;AS IS&quot;, WITHOUT WARRANTY OF ANY KIND,
EXPRESS OR IMPLIED, INCLUDING BUT NOT LIMITED TO ANY WARRANTIES OF
MERCHANTABILITY, FITNESS FOR A PARTICULAR PURPOSE AND NONINFRINGEMENT
OF COPYRIGHT, PATENT, TRADEMARK, OR OTHER RIGHT. IN NO EVENT SHALL THE
COPYRIGHT HOLDER BE LIABLE FOR ANY CLAIM, DAMAGES OR OTHER LIABILITY,
INCLUDING ANY GENERAL, SPECIAL, INDIRECT, INCIDENTAL, OR CONSEQUENTIAL
DAMAGES, WHETHER IN AN ACTION OF CONTRACT, TORT OR OTHERWISE, ARISING
FROM, OUT OF THE USE OR INABILITY TO USE THE FONT SOFTWARE OR FROM
OTHER DEALINGS IN THE FONT SOFTWARE.
</metadata><g transform="translate(2 4)" fill="#0C0A08" stroke="#0C0A08" stroke-width="4"><path d="M67 20H252Q275 20 274 43L272 80Q298 88 295 114L290 168Q287 198 253 198H62Q30 198 27 173L23 121Q21 98 43 86L42 48Q41 23 67 20Z"/></g><g fill="#141210" stroke="#FFFDF8" stroke-width="4" stroke-linejoin="round"><path d="M67 20H252Q275 20 274 43L272 80Q298 88 295 114L290 168Q287 198 253 198H62Q30 198 27 173L23 121Q21 98 43 86L42 48Q41 23 67 20Z"/></g><g transform="matrix(1 0 -.14 1 12 0)"><path fill="#E0363D" d="M74 0V688H538.002Q615.002 688 666.502 656.8Q718.002 625.6 744.002 575.2Q770.002 524.8 770.002 466.4Q770.002 399.8 739.102 347.9Q708.202 296 654.002 264.8L789.202 0H535.002L430.202 227.8H300.2V0ZM300.2 384.4H476.602Q503.002 384.4 521.202 404.3Q539.402 424.2 539.402 457.6Q539.402 478.6 531.202 494.3Q523.002 510 508.902 519.1Q494.802 528.2 476.602 528.2H300.2ZM1083.401 0 821.2 688H1064.8L1166.001 375.8Q1170.601 362.4 1178.401 336.7Q1186.201 311 1195.401 282.3Q1204.601 253.6 1211.201 230H1219.001Q1225.401 251.4 1234.001 279Q1242.601 306.6 1250.901 332.8Q1259.201 359 1264.201 375.8L1366.602 688H1600.002L1338.601 0ZM1690 0V688H1916.2V178.6H2287.801V0ZM2449.201 0V509.4H2210V688H2913.802V509.4H2675.401V0Z" transform="translate(54.9447 88.0002) scale(0.068315 -0.068315)"/></g><path fill="#FFFDF8" d="M194.164 -197.219 44.159 -180.623 13.375 -454.86Q9.195 -492.106 28.497 -516.291Q47.8 -540.475 85.047 -544.656Q105.796 -546.985 125.748 -546.206Q145.699 -545.426 155.269 -543.723ZM125.947 -166.659 112.401 -287.341 410.568 -320.811Q417.637 -311.984 424.595 -297.329Q431.553 -282.673 433.601 -264.428Q437.167 -232.667 424.519 -215.71Q411.872 -198.754 387.147 -195.978ZM98.763 -422.462 85.047 -544.656 415.73 -581.775Q422.772 -573.187 429.408 -557.992Q436.045 -542.798 438.093 -524.552Q441.658 -492.791 429.053 -475.457Q416.448 -458.123 391.723 -455.347ZM37.595 -239.095 189.323 -256.126 223.582 49.076Q214.363 52.647 194.809 57.74Q175.255 62.833 154.505 65.162Q109.984 70.16 89.572 56.129Q69.159 42.098 64.777 3.063ZM576.411 -247.746 724.737 -253.273 739.451 6.19Q730.063 9.487 712.275 13.381Q694.487 17.274 673.4 18.47Q631.188 20.864 610.632 7.045Q590.077 -6.773 587.839 -46.23ZM729.083 -176.636 580.771 -170.869 554.496 -634.165Q563.884 -637.462 581.792 -641.362Q599.7 -645.262 620.547 -646.444Q663.758 -648.895 683.792 -635.428Q703.827 -621.96 706.108 -581.745ZM1346.308 -239.521Q1346.129 -160.962 1314.717 -103.82Q1283.305 -46.679 1226.258 -15.602Q1169.211 15.475 1092.125 15.299Q1015.503 15.124 958.385 -15.766Q901.266 -46.657 869.977 -104.008Q838.687 -161.36 838.869 -240.68Q839.047 -319.087 871.097 -375.99Q903.147 -432.894 960.418 -463.903Q1017.689 -494.912 1093.573 -494.739Q1169.456 -494.566 1226.297 -462.952Q1283.137 -431.338 1314.811 -374.07Q1346.484 -316.801 1346.308 -239.521ZM1092.847 -377.82Q1045.783 -377.927 1018.361 -341.89Q990.939 -305.853 990.789 -240.333Q990.635 -173.053 1017.43 -137.392Q1044.225 -101.731 1092.392 -101.621Q1140.632 -101.511 1167.434 -137.55Q1194.236 -173.589 1194.387 -239.868Q1194.535 -304.628 1167.574 -341.169Q1140.613 -377.711 1092.847 -377.82ZM1794.281 -255.683Q1778.43 -206.885 1757.533 -155.512Q1736.636 -104.14 1717.917 -59.833Q1699.199 -15.527 1687.444 11.321Q1674.72 20.478 1653.187 24.879Q1631.653 29.28 1602.624 26.519Q1568.538 23.278 1543.189 10.762Q1517.839 -1.754 1510.863 -21.343Q1503.557 -42.128 1495.738 -79.898Q1487.919 -117.668 1480.523 -166.447Q1473.128 -215.226 1466.359 -267.843Q1459.59 -320.46 1454.636 -369.771Q1449.682 -419.081 1446.901 -458.281Q1460.332 -469.379 1481.512 -476.827Q1502.693 -484.276 1527.461 -481.92Q1558.481 -478.97 1576.421 -462.9Q1594.36 -446.829 1595.842 -412.133Q1599.135 -343.673 1602.377 -292.416Q1605.619 -241.159 1608.634 -205.052Q1611.65 -168.944 1613.884 -145.749Q1616.118 -122.553 1617.652 -109.952L1621.634 -109.573Q1629.456 -131.411 1646.352 -177.679Q1663.248 -223.947 1686.047 -283.697Q1708.846 -343.447 1731.125 -404.491Q1749.073 -412.388 1767.322 -415.836Q1785.57 -419.284 1809.861 -416.974Q1840.642 -414.046 1861.485 -402.099Q1882.328 -390.153 1886.629 -369.05Q1898.728 -306.986 1908.941 -248.758Q1919.154 -190.53 1926.801 -146.086Q1934.448 -101.643 1937.068 -79.335L1942.045 -78.861Q1963.425 -157.068 1986.145 -243.244Q2008.866 -329.42 2028.079 -416.111Q2060.377 -431.241 2096.932 -427.765Q2127.474 -424.86 2146.004 -409.718Q2164.534 -394.576 2161.485 -362.52Q2160.084 -347.786 2151.778 -317.055Q2143.471 -286.323 2130.958 -246.85Q2118.445 -207.378 2103.03 -163.801Q2087.616 -120.225 2072.365 -79.647Q2057.115 -39.068 2043.785 -6.845Q2030.455 25.377 2021.259 43.066Q2009.274 52.052 1983.588 56.179Q1957.902 60.306 1929.35 57.59Q1856.001 50.615 1846.433 13.06Q1839.58 -14.593 1829.502 -58.604Q1819.423 -102.616 1810.228 -154.439Q1801.033 -206.262 1794.281 -255.683Z" transform="translate(52.2751 164.3833) scale(0.099538)"/><path d="M66 183Q152 195 257 176Q216 192 146 193Q99 193 66 183Z" fill="#E0363D"/></svg>