<svg xmlns="http://www.w3.org/2000/svg" viewBox="0 0 128 128"><title>Stage curtains — RVLT Flow</title><g transform="translate(2 4)"><rect x="7" y="7" width="114" height="114" rx="23" fill="#0C0A08"/></g><rect x="7" y="7" width="114" height="114" rx="23" fill="#E0363D" stroke="#FFFDF8" stroke-width="3"/><defs><clipPath id="curtain-interior"><rect x="8.5" y="8.5" width="111" height="111" rx="21.5"/></clipPath></defs><g clip-path="url(#curtain-interior)"><g color="#FFFDF8" fill="none" stroke="currentColor" stroke-width="3.4" stroke-linecap="round" stroke-linejoin="round"><path d="M45 24Q46 48 23 69Q34 90 37 120H91Q94 90 105 69Q82 48 83 24Q64 35 45 24Z" fill="#141210"/><path d="M28 29Q30 48 20 59M100 29Q98 48 108 59M19 83L22 106M109 83L106 106M13 72L23 69M105 69L115 72"/></g></g></svg>