<svg xmlns="http://www.w3.org/2000/svg" viewBox="0 0 128 128"><title>Ticket stub — RVLT Flow</title><metadata>Ticket stub adapted from Phosphor Icons by Helena Zhang and Tobias Fried. Source: https://github.com/phosphor-icons/core/blob/main/raw/regular/ticket.svg . Adaptation: Ticket outline retained; divider made into a perforation, proportions and stroke adapted. RVLT sticker background added.
MIT License

Copyright (c) 2023 Phosphor Icons

Permission is hereby granted, free of charge, to any person obtaining a copy
of this software and associated documentation files (the &quot;Software&quot;), to deal
in the Software without restriction, including without limitation the rights
to use, copy, modify, merge, publish, distribute, sublicense, and/or sell
copies of the Software, and to permit persons to whom the Software is
furnished to do so, subject to the following conditions:

The above copyright notice and this permission notice shall be included in all
copies or substantial portions of the Software.

THE SOFTWARE IS PROVIDED &quot;AS IS&quot;, WITHOUT WARRANTY OF ANY KIND, EXPRESS OR
IMPLIED, INCLUDING BUT NOT LIMITED TO THE WARRANTIES OF MERCHANTABILITY,
FITNESS FOR A PARTICULAR PURPOSE AND NONINFRINGEMENT. IN NO EVENT SHALL THE
AUTHORS OR COPYRIGHT HOLDERS BE LIABLE FOR ANY CLAIM, DAMAGES OR OTHER
LIABILITY, WHETHER IN AN ACTION OF CONTRACT, TORT OR OTHERWISE, ARISING FROM,
OUT OF OR IN CONNECTION WITH THE SOFTWARE OR THE USE OR OTHER DEALINGS IN THE
SOFTWARE.
</metadata><g color="#FFFDF8" fill="none" stroke="currentColor" stroke-width="3.4" stroke-linecap="round" stroke-linejoin="round"><g transform="translate(20.48 20.48) scale(.34)">
         <path d="M24 160a32 32 0 0 0 0-64V64a8 8 0 0 1 8-8h192a8 8 0 0 1 8 8v32a32 32 0 0 0 0 64v32a8 8 0 0 1-8 8H32a8 8 0 0 1-8-8Z" stroke-width="10"/>
         <path d="M96 72v16m0 24v16m0 24v16m0 24v8" stroke-width="8"/>
         </g></g></svg>